HIERARCHY
ROOT hip
{
  OFFSET 123.119 86.5463 93.7961
  CHANNELS 6 Xposition Yposition Zposition Zrotation Xrotation Yrotation
  JOINT abdomen
  {
    OFFSET 0 20.6881 -0.73152
    CHANNELS 3 Zrotation Xrotation Yrotation
    JOINT chest
    {
      OFFSET 0 11.7043 -0.48768
      CHANNELS 3 Zrotation Xrotation Yrotation
      JOINT neck
      {
        OFFSET 0 22.1894 -2.19456
        CHANNELS 3 Zrotation Xrotation Yrotation
        JOINT head
        {
          OFFSET -0.24384 7.07133 1.2192
          CHANNELS 3 Zrotation Xrotation Yrotation
          JOINT leftEye
          {
            OFFSET 4.14528 8.04674 8.04672
            CHANNELS 3 Zrotation Xrotation Yrotation
            End Site
            {
              OFFSET 1 0 0
            }
          }
          JOINT rightEye
          {
            OFFSET -3.6576 8.04674 8.04672
            CHANNELS 3 Zrotation Xrotation Yrotation
            End Site
            {
              OFFSET 1 0 0
            }
          }
        }
      }
      JOINT rCollar
      {
        OFFSET -2.68224 19.2634 -4.8768
        CHANNELS 3 Zrotation Xrotation Yrotation
        JOINT rShldr
        {
          OFFSET -8.77824 -1.95073 1.46304
          CHANNELS 3 Zrotation Xrotation Yrotation
          JOINT rForeArm
          {
            OFFSET -28.1742 -1.7115 0.48768
            CHANNELS 3 Zrotation Xrotation Yrotation
            JOINT rHand
            {
              OFFSET -22.5879 0.773209 7.07136
              CHANNELS 3 Zrotation Xrotation Yrotation
              JOINT rThumb1
              {
                OFFSET -1.2192 -0.487915 3.41376
                CHANNELS 3 Zrotation Xrotation Yrotation
                JOINT rThumb2
                {
                  OFFSET -3.37035 -0.52449 3.41376
                  CHANNELS 3 Zrotation Xrotation Yrotation
                  End Site
                  {
                    OFFSET -1.78271 -1.18214 1.43049
                  }
                }
              }
              JOINT rIndex1
              {
                OFFSET -7.75947 0.938293 5.60832
                CHANNELS 3 Zrotation Xrotation Yrotation
                JOINT rIndex2
                {
                  OFFSET -2.54057 -0.884171 1.56538
                  CHANNELS 3 Zrotation Xrotation Yrotation
                  End Site
                  {
                    OFFSET -1.62519 -0.234802 1.16502
                  }
                }
              }
              JOINT rMid1
              {
                OFFSET -8.24714 1.18213 3.41376
                CHANNELS 3 Zrotation Xrotation Yrotation
                JOINT rMid2
                {
                  OFFSET -3.10165 -0.590103 1.0647
                  CHANNELS 3 Zrotation Xrotation Yrotation
                  End Site
                  {
                    OFFSET -2.48547 -0.328903 0.83742
                  }
                }
              }
              JOINT rRing1
              {
                OFFSET -8.82822 0.546677 1.51678
                CHANNELS 3 Zrotation Xrotation Yrotation
                JOINT rRing2
                {
                  OFFSET -2.60934 -0.819778 -0.0198488
                  CHANNELS 3 Zrotation Xrotation Yrotation
                  End Site
                  {
                    OFFSET -2.33842 -0.294052 0.168128
                  }
                }
              }
              JOINT rPinky1
              {
                OFFSET -8.27202 -0.0477905 -0.4584
                CHANNELS 3 Zrotation Xrotation Yrotation
                JOINT rPinky2
                {
                  OFFSET -1.82734 -0.647385 -0.700984
                  CHANNELS 3 Zrotation Xrotation Yrotation
                  End Site
                  {
                    OFFSET -1.69225 -0.51767 -0.607171
                  }
                }
              }
            }
          }
        }
      }
      JOINT lCollar
      {
        OFFSET 2.68224 19.2634 -4.8768
        CHANNELS 3 Zrotation Xrotation Yrotation
        JOINT lShldr
        {
          OFFSET 8.77824 -1.95073 1.46304
          CHANNELS 3 Zrotation Xrotation Yrotation
          JOINT lForeArm
          {
            OFFSET 28.1742 -1.7115 0.48768
            CHANNELS 3 Zrotation Xrotation Yrotation
            JOINT lHand
            {
              OFFSET 22.5879 0.773209 7.07136
              CHANNELS 3 Zrotation Xrotation Yrotation
              JOINT lThumb1
              {
                OFFSET 1.2192 -0.487915 3.41376
                CHANNELS 3 Zrotation Xrotation Yrotation
                JOINT lThumb2
                {
                  OFFSET 3.37035 -0.52449 3.41376
                  CHANNELS 3 Zrotation Xrotation Yrotation
                  End Site
                  {
                    OFFSET 1.78271 -1.18214 1.43049
                  }
                }
              }
              JOINT lIndex1
              {
                OFFSET 7.75947 0.938293 5.60832
                CHANNELS 3 Zrotation Xrotation Yrotation
                JOINT lIndex2
                {
                  OFFSET 2.54057 -0.884171 1.56538
                  CHANNELS 3 Zrotation Xrotation Yrotation
                  End Site
                  {
                    OFFSET 1.62519 -0.234802 1.16502
                  }
                }
              }
              JOINT lMid1
              {
                OFFSET 8.24714 1.18213 3.41376
                CHANNELS 3 Zrotation Xrotation Yrotation
                JOINT lMid2
                {
                  OFFSET 3.10165 -0.590103 1.0647
                  CHANNELS 3 Zrotation Xrotation Yrotation
                  End Site
                  {
                    OFFSET 2.48547 -0.328903 0.83742
                  }
                }
              }
              JOINT lRing1
              {
                OFFSET 8.82822 0.546677 1.51678
                CHANNELS 3 Zrotation Xrotation Yrotation
                JOINT lRing2
                {
                  OFFSET 2.60934 -0.819778 -0.0198488
                  CHANNELS 3 Zrotation Xrotation Yrotation
                  End Site
                  {
                    OFFSET 2.33842 -0.294052 0.168128
                  }
                }
              }
              JOINT lPinky1
              {
                OFFSET 8.27202 -0.0477905 -0.4584
                CHANNELS 3 Zrotation Xrotation Yrotation
                JOINT lPinky2
                {
                  OFFSET 1.82734 -0.647385 -0.700984
                  CHANNELS 3 Zrotation Xrotation Yrotation
                  End Site
                  {
                    OFFSET 1.69225 -0.51767 -0.607171
                  }
                }
              }
            }
          }
        }
      }
    }
  }
  JOINT rButtock
  {
    OFFSET -8.77824 4.35084 1.2192
    CHANNELS 3 Zrotation Xrotation Yrotation
    JOINT rThigh
    {
      OFFSET 0 -1.70687 -2.19456
      CHANNELS 3 Zrotation Xrotation Yrotation
      JOINT rShin
      {
        OFFSET 0 -36.8199 0.73152
        CHANNELS 3 Zrotation Xrotation Yrotation
        JOINT rFoot
        {
          OFFSET 0.73152 -45.1104 -5.12064
          CHANNELS 3 Zrotation Xrotation Yrotation
          End Site
          {
            OFFSET -1.1221 -3.69964 12.103
          }
        }
      }
    }
  }
  JOINT lButtock
  {
    OFFSET 8.77824 4.35084 1.2192
    CHANNELS 3 Zrotation Xrotation Yrotation
    JOINT lThigh
    {
      OFFSET 0 -1.70687 -2.19456
      CHANNELS 3 Zrotation Xrotation Yrotation
      JOINT lShin
      {
        OFFSET 0 -36.8199 0.73152
        CHANNELS 3 Zrotation Xrotation Yrotation
        JOINT lFoot
        {
          OFFSET -0.73152 -45.1104 -5.12064
          CHANNELS 3 Zrotation Xrotation Yrotation
          End Site
          {
            OFFSET 1.1221 -3.69964 12.103
          }
        }
      }
    }
  }
}
MOTION
Frames:	4
Frame Time:	0.00833333
131.15 85.0159 -41.6478 -0.0307804 0.000155243 0.000536402 0.0404826 0.000270405 0.00114435 0.0111572 0.000489942 0.00193269 9.50152e-016 7.95139e-016 5.43552e-018 2.85753e-015 9.54166e-015 1.86361e-017 -0 0 0 -0 0 0 5.45352e-016 3.88251e-019 9.93923e-017 1.19071e-014 -3.10601e-016 9.93923e-016 1.74334e-013 -5.36719e-014 -1.59028e-014 1.97356e-012 4.32357e-014 2.54444e-014 4.65842e-012 -1.94965e-014 4.13472e-014 8.04322e-012 -3.81667e-014 5.48646e-014 4.66309e-012 -1.74931e-014 2.54444e-014 7.73091 5.47488 0.417314 4.65817e-012 -1.94809e-014 4.13472e-014 2.90554 0.965183 0.102902 4.67103e-012 -1.91827e-014 3.49861e-014 10.2786 0.731801 0.0259123 4.65375e-012 -1.74931e-014 3.81667e-014 2.22167 -0.733487 -0.20892 4.48602e-016 7.76503e-019 -9.93923e-017 7.98099e-015 -9.31803e-017 -7.95139e-016 1.69613e-013 5.08889e-014 1.59028e-014 1.97616e-012 -5.397e-014 3.18055e-015 4.65793e-012 -4.58566e-015 3.18055e-014 8.05992e-012 -1.27222e-014 6.2816e-014 4.65077e-012 -1.19271e-015 3.81667e-014 -7.73091 5.47488 -0.417314 4.65733e-012 -4.37326e-015 3.18055e-014 -2.90554 0.965183 -0.102902 4.65466e-012 -4.27387e-015 3.57812e-014 -10.2786 0.731801 -0.0259123 4.65951e-012 -4.37326e-015 3.49861e-014 -2.22167 -0.733487 0.20892 -2.03217e-016 0 -3.88251e-019 0.554635 -3.16496 -0.0436849 -0.00574516 0.179609 -0.0505573 -0.523873 2.98421 0.121167 2.03217e-016 0 3.88251e-019 -0.49304 -3.01454 0.0399655 0.00619334 -0.0928798 0.0545631 0.523464 3.10627 -0.123627 
132.519 84.1604 -42.4637 1.56422 0.66301 -0.346986 -2.25572 0.902347 -2.00595 0.147259 0.500798 -0.589154 -3.49621 6.43358 -4.75272 10.0615 -8.29334 -7.78731 -0 0 0 -0 0 0 -1.1764e-014 -4.22998e-015 7.97468e-016 23.3482 3.50572 -1.29374 -3.23639 -1.31716 5.20965 0.160259 8.90608 1.19788 2.88911e-010 -1.71558e-010 3.84215e-010 5.08879e-010 -2.97738e-010 6.5543e-010 2.88913e-010 -1.71553e-010 3.84203e-010 7.73091 5.47488 0.417314 2.88909e-010 -1.71554e-010 3.84214e-010 2.90554 0.965183 0.102902 2.88921e-010 -1.71554e-010 3.84211e-010 10.2786 0.731801 0.0259123 2.88907e-010 -1.71553e-010 3.84217e-010 2.22167 -0.733487 -0.20892 -1.18254e-014 -4.2297e-015 5.95189e-016 -19.9658 5.36717 -0.548322 5.07446 -2.50596 -7.69647 -0.0297987 3.83152 -0.534148 3.60717e-010 5.78863e-010 2.43619e-010 6.26305e-010 9.994e-010 4.16518e-010 3.6071e-010 5.78866e-010 2.43626e-010 -7.73091 5.47488 -0.417314 3.60716e-010 5.78861e-010 2.43619e-010 -2.90554 0.965183 -0.102902 3.60714e-010 5.78861e-010 2.43622e-010 -10.2786 0.731801 -0.0259123 3.60721e-010 5.78861e-010 2.4362e-010 -2.22167 -0.733487 0.20892 -2.03217e-016 0 -3.88251e-019 -0.817808 -10.9631 2.35463 -0.0103376 7.26629 0.0470641 -0.547569 3.12878 -1.1726 2.03217e-016 0 3.88251e-019 -2.03272 1.91288 -0.0793268 -0.0133649 2.98552 -0.0564435 0.593074 3.91755 -2.29909 
132.504 84.1606 -41.2841 3.29361 1.37379 -0.71802 -4.65738 1.85505 -4.11656 0.295636 1.02549 -1.21121 -6.00192 13.091 -9.98385 18.2115 -16.5706 -16.5576 -0 0 0 -0 0 0 -2.45333e-014 -8.10004e-015 9.00743e-016 48.2364 7.25617 -2.73099 -6.4148 -2.68284 10.7527 -0.0945352 18.2692 2.55909 6.14927e-010 -3.63128e-010 7.98233e-010 1.08255e-009 -6.29918e-010 1.36119e-009 6.14924e-010 -3.6312e-010 7.98223e-010 7.73091 5.47488 0.417314 6.14923e-010 -3.6312e-010 7.98229e-010 2.90554 0.965183 0.102902 6.14934e-010 -3.6312e-010 7.9823e-010 10.2786 0.731801 0.0259123 6.14924e-010 -3.6312e-010 7.98239e-010 2.22167 -0.733487 -0.20892 -2.45557e-014 -8.09988e-015 6.9264e-016 -40.9281 11.0714 -1.1493 9.70828 -4.99996 -15.8715 0.0170187 7.87159 -1.10552 7.61518e-010 1.22519e-009 5.08729e-010 1.32215e-009 2.11517e-009 8.69575e-010 7.6151e-010 1.22519e-009 5.08736e-010 -7.73091 5.47488 -0.417314 7.61517e-010 1.22518e-009 5.08729e-010 -2.90554 0.965183 -0.102902 7.61515e-010 1.22518e-009 5.0873e-010 -10.2786 0.731801 -0.0259123 7.61524e-010 1.22518e-009 5.08727e-010 -2.22167 -0.733487 0.20892 -2.03217e-016 0 -3.88251e-019 -1.5672 -19.1792 5.09501 -0.0415686 14.7162 0.155372 -0.564361 3.32869 -2.55564 2.03217e-016 0 3.88251e-019 -3.68688 7.20593 -0.215548 -0.021596 6.0547 -0.173779 0.728578 4.66815 -4.6072 
132.338 84.0526 -40.2753 4.77835 1.98843 -1.04259 -6.65873 2.69322 -6.02607 0.450436 1.50078 -1.77187 -7.17246 18.7553 -14.9807 23.1502 -22.9708 -25.2399 -0 0 0 -0 0 0 -3.63826e-014 -1.26907e-014 2.19362e-015 70.526 10.4955 -3.93996 -8.99913 -3.82101 15.6605 -0.748555 26.6686 3.97361 8.57417e-010 -5.14636e-010 1.15256e-009 1.51055e-009 -8.93139e-010 1.96618e-009 8.57411e-010 -5.14625e-010 1.15256e-009 7.73091 5.47488 0.417314 8.57411e-010 -5.14624e-010 1.15256e-009 2.90554 0.965183 0.102902 8.57421e-010 -5.14624e-010 1.15256e-009 10.2786 0.731801 0.0259123 8.57415e-010 -5.14625e-010 1.15257e-009 2.22167 -0.733487 -0.20892 -3.63734e-014 -1.26907e-014 1.98435e-015 -59.5785 16.0955 -1.70459 13.2519 -6.97645 -23.2493 0.128624 11.4905 -1.63157 1.07284e-009 1.7366e-009 7.30795e-010 1.8628e-009 2.99823e-009 1.24943e-009 1.07283e-009 1.7366e-009 7.30803e-010 -7.73091 5.47488 -0.417314 1.07283e-009 1.73659e-009 7.30795e-010 -2.90554 0.965183 -0.102902 1.07283e-009 1.73659e-009 7.30795e-010 -10.2786 0.731801 -0.0259123 1.07284e-009 1.73659e-009 7.3079e-010 -2.22167 -0.733487 0.20892 -2.03217e-016 0 -3.88251e-019 -1.41043 -26.3717 7.84265 -0.0960541 21.4395 0.259101 -0.575399 3.41252 -3.76125 2.03217e-016 0 3.88251e-019 -5.04964 11.7676 -0.324488 -0.0163486 9.14221 -0.281807 0.917342 5.51226 -6.66521 
